# xmcd CD database file
#
# Track frame offsets:
#	150
#	39602
#	62717
#	94197
#	129847
#	159680
#	191580
#	222107
#
# Disc length: 3242 seconds
#
# Revision: 0
# Processed by: cddbd v1.5PL3 Copyright (c) Steve Scherf et al.
# Submitted via: CDex 1.51
#
DISCID=6b0ca808
DTITLE=Spirits Trio - Jazz
DYEAR=1900
DGENRE=Jazz
TTITLE0=where are you
TTITLE1=blame it on my youth
TTITLE2=waltz step
TTITLE3=can't help lovin' dat man
TTITLE4=don't take your love from me
TTITLE5=the things we did last summer
TTITLE6=desert wind
TTITLE7=a lovely way to spend on evening
EXTD=
EXTT0=
EXTT1=
EXTT2=
EXTT3=
EXTT4=
EXTT5=
EXTT6=
EXTT7=
PLAYORDER=
